<?xml version="1.0" encoding="UTF-8" standalone="no"?>
<!-- Created with Inkscape (http://www.inkscape.org/) -->

<svg
   width="61.90316mm"
   height="49.275307mm"
   viewBox="0 0 61.90316 49.275307"
   version="1.1"
   id="svg5"
   xml:space="preserve"
   inkscape:version="1.2 (dc2aedaf03, 2022-05-15)"
   sodipodi:docname="logo_dark.svg"
   xmlns:inkscape="http://www.inkscape.org/namespaces/inkscape"
   xmlns:sodipodi="http://sodipodi.sourceforge.net/DTD/sodipodi-0.dtd"
   xmlns="http://www.w3.org/2000/svg"
   xmlns:svg="http://www.w3.org/2000/svg"><sodipodi:namedview
     id="namedview7"
     pagecolor="#ffffff"
     bordercolor="#000000"
     borderopacity="0.25"
     inkscape:showpageshadow="2"
     inkscape:pageopacity="0.0"
     inkscape:pagecheckerboard="0"
     inkscape:deskcolor="#d1d1d1"
     inkscape:document-units="mm"
     showgrid="false"
     inkscape:zoom="1.4841611"
     inkscape:cx="201.46062"
     inkscape:cy="74.115946"
     inkscape:window-width="1920"
     inkscape:window-height="1013"
     inkscape:window-x="0"
     inkscape:window-y="0"
     inkscape:window-maximized="1"
     inkscape:current-layer="layer1" /><defs
     id="defs2" /><g
     inkscape:label="Layer 1"
     inkscape:groupmode="layer"
     id="layer1"
     transform="translate(-58.540617,-125.82333)"><g
       id="g22111"
       transform="translate(-21.343147,15.698984)"><g
         id="g21403"
         transform="translate(4.9918485,-4.0842441)"><path
           style="fill:#000000;stroke:#000000;stroke-width:0.0842227;stroke-opacity:1"
           d="m 427.95437,498.76204 c -0.1031,-0.0722 -0.18745,-0.19984 -0.18745,-0.28361 0,-0.0838 -0.0758,-0.24868 -0.16845,-0.36646 -0.0926,-0.11778 -0.16834,-0.24606 -0.16821,-0.28508 4.1e-4,-0.12452 -0.37545,-0.8265 -0.47793,-0.89261 -0.0543,-0.035 -0.12418,-0.1797 -0.15533,-0.32152 -0.0312,-0.14183 -0.10991,-0.27831 -0.17503,-0.30329 -0.0651,-0.025 -0.11839,-0.11718 -0.11839,-0.20487 0,-0.0877 -0.0758,-0.23523 -0.16845,-0.32788 -0.0926,-0.0926 -0.16844,-0.21942 -0.16844,-0.28172 0,-0.0623 -0.0758,-0.18188 -0.16845,-0.26573 -0.0926,-0.0838 -0.16844,-0.22355 -0.16844,-0.31047 0,-0.0869 -0.0568,-0.17985 -0.12634,-0.20652 -0.0695,-0.0267 -0.12638,-0.0918 -0.12644,-0.14474 -6e-5,-0.053 -0.14286,-0.30472 -0.31732,-0.55949 -0.17447,-0.25478 -0.36311,-0.56746 -0.4192,-0.69484 -0.0561,-0.12739 -0.1407,-0.23161 -0.18801,-0.23161 -0.0473,0 -0.086,-0.0639 -0.086,-0.14197 0,-0.0781 -0.0824,-0.22968 -0.18313,-0.33689 l -0.18313,-0.19493 h 19.37689 c 17.59149,0 19.38159,0.0123 19.428,0.13323 0.0281,0.0733 0.0511,0.24111 0.0511,0.37298 0,0.13187 0.0573,0.29712 0.12746,0.36723 0.0701,0.0701 0.15052,0.25284 0.17871,0.40607 0.0282,0.15324 0.1026,0.36122 0.16537,0.46219 0.0628,0.10096 0.13868,0.33712 0.16869,0.5248 0.03,0.18767 0.10669,0.38448 0.17039,0.43735 0.0637,0.0529 0.11582,0.2034 0.11582,0.33452 0,0.26882 0.15898,0.66743 0.26619,0.66743 0.0389,0 0.071,0.14213 0.0713,0.31584 3.4e-4,0.17371 0.0759,0.42953 0.16789,0.5685 0.092,0.13897 0.16759,0.38636 0.16789,0.54976 3.4e-4,0.1634 0.0583,0.37959 0.12896,0.48042 0.0706,0.10083 0.13695,0.32719 0.14739,0.50302 l 0.019,0.3197 -18.4047,0.0212 c -16.55495,0.0191 -18.42354,0.008 -18.59216,-0.11005 z"
           id="path21266"
           transform="scale(0.26458333)" /><g
           id="g21396"><path
             style="fill:#000000;stroke:#000000;stroke-width:0.476435;stroke-opacity:1"
             d="m 368.0463,616.97399 c -7.23344,-0.70606 -10.30605,-1.23117 -15.36433,-2.62576 -12.70475,-3.50276 -22.30803,-8.19823 -32.99385,-16.13213 -3.92114,-2.91133 -13.81726,-12.51806 -16.00367,-15.53568 -0.75944,-1.04815 -1.50729,-2.01293 -1.66189,-2.14395 -1.10271,-0.93454 -6.81061,-10.24578 -9.05111,-14.765 -6.45294,-13.01593 -9.65358,-26.49041 -9.67704,-40.73972 -0.0533,-32.36359 16.00979,-61.26399 44.01667,-79.19395 8.14469,-5.21422 20.29131,-9.99235 30.73008,-12.08834 4.21869,-0.84706 13.70967,-1.85242 17.52778,-1.85668 6.2487,-0.007 14.55593,1.01615 21.53992,2.65286 25.85552,6.05928 48.45591,23.5921 60.78125,47.15259 1.29054,2.46692 2.34643,4.70392 2.34643,4.97111 0,0.32228 -6.63698,0.4858 -19.71828,0.4858 h -19.71827 l -3.50795,-3.47322 c -7.87166,-7.79374 -16.93284,-12.96486 -26.85328,-15.32486 -6.11081,-1.45372 -8.1276,-1.68833 -14.43562,-1.67927 -16.43452,0.0236 -30.36568,5.75999 -41.54553,17.10707 -8.73748,8.86819 -13.4218,18.09746 -16.17094,31.86074 -0.71655,3.58734 -0.60866,14.41513 0.18847,18.91486 1.81509,10.24609 6.34286,19.99163 12.83821,27.63286 11.24533,13.22919 27.37456,20.72532 44.59414,20.72532 4.78022,0 7.41744,-0.29796 13.10197,-1.48029 2.63996,-0.54908 3.23756,-0.73605 8.21851,-2.57118 1.89978,-0.69994 3.45415,-1.43339 3.45415,-1.6299 0,-0.43397 -2.38891,-2.65388 -9.271,-8.61514 -2.87172,-2.48748 -6.57005,-5.82157 -8.21851,-7.40909 l -2.99721,-2.8864 v -9.14359 -9.14359 l 15.36504,0.002 15.36504,0.002 1.42931,1.32564 c 3.65854,3.39284 13.71785,12.00978 14.0205,12.00978 0.4577,0 3.5417,-6.69757 4.71671,-10.24336 3.70669,-11.18553 3.9131,-22.56452 0.63305,-34.89889 l -0.91856,-3.45415 h 17.80278 17.80278 l 0.21932,1.07198 c 2.64458,12.926 2.40988,28.11082 -0.62042,40.13967 -0.26405,1.04816 -0.69727,2.76333 -0.9627,3.81149 -1.72536,6.81318 -5.92291,16.27346 -10.48549,23.6318 l -1.89028,3.04858 1.9954,1.86796 c 2.78515,2.60727 5.23299,4.78453 9.38106,8.34407 1.96479,1.68603 4.80513,4.25207 6.31185,5.70231 l 2.73951,2.6368 v 10.13917 10.13917 h -14.19664 -14.19664 l -5.2181,-4.58075 c -4.6396,-4.07291 -6.27637,-5.51792 -10.03331,-8.85786 -0.99113,-0.88111 -1.05129,-0.86281 -4.79403,1.45851 -9.79761,6.07667 -22.50858,10.89581 -33.9846,12.88467 -2.663,0.46151 -15.51462,1.58532 -16.1988,1.41651 -0.13102,-0.0324 -3.02536,-0.33083 -6.43188,-0.66334 z"
             id="path21128"
             transform="scale(0.26458333)" /><ellipse
             style="fill:#000000;stroke:#000000;stroke-width:0.264583;stroke-opacity:1"
             id="path21387"
             cx="118.67521"
             cy="129.62997"
             rx="17.987576"
             ry="0.28523383" /><ellipse
             style="fill:#000000;stroke:#000000;stroke-width:0.264583;stroke-opacity:1"
             id="path21391"
             cx="118.38629"
             cy="132.76938"
             rx="18.000917"
             ry="0.35295954" /></g></g><text
         xml:space="preserve"
         style="font-style:normal;font-variant:normal;font-weight:normal;font-stretch:normal;font-size:12.7px;font-family:Cantarell;-inkscape-font-specification:Cantarell;fill:#000000;stroke:#000000;stroke-width:0.264583;stroke-opacity:1"
         x="89.82811"
         y="138.33478"
         id="text22101"><tspan
           sodipodi:role="line"
           id="tspan22099"
           style="font-style:normal;font-variant:normal;font-weight:normal;font-stretch:normal;font-family:Cantarell;-inkscape-font-specification:Cantarell;stroke-width:0.264583"
           x="89.82811"
           y="138.33478">MAL</tspan></text></g></g></svg>
